<svg width="25" height="25" viewBox="0 0 25 25" fill="none" xmlns="http://www.w3.org/2000/svg">
<path d="M11.4583 3.125H13.5417C14.117 3.125 14.5833 3.59137 14.5833 4.16667V4.75916C14.5833 5.20478 14.8824 5.59193 15.294 5.76279C15.7057 5.93373 16.1851 5.86858 16.5003 5.55336L16.9194 5.13428C17.3261 4.72748 17.9857 4.72748 18.3925 5.13428L19.8656 6.60742C20.2725 7.01422 20.2724 7.67376 19.8656 8.08056L19.4467 8.49958C19.1314 8.81482 19.0662 9.29424 19.2372 9.70598C19.408 10.1176 19.7952 10.4167 20.2409 10.4167H20.8333C21.4086 10.4167 21.875 10.883 21.875 11.4583V13.5417C21.875 14.117 21.4086 14.5833 20.8333 14.5833H20.2408C19.7952 14.5833 19.4081 14.8824 19.2372 15.294C19.0662 15.7057 19.1314 16.1851 19.4467 16.5003L19.8656 16.9194C20.2725 17.3261 20.2725 17.9857 19.8656 18.3925L18.3925 19.8656C17.9857 20.2725 17.3261 20.2725 16.9194 19.8656L16.5003 19.4467C16.1851 19.1314 15.7057 19.0662 15.294 19.2372C14.8824 19.4081 14.5833 19.7952 14.5833 20.2408V20.8333C14.5833 21.4086 14.117 21.875 13.5417 21.875H11.4583C10.883 21.875 10.4167 21.4086 10.4167 20.8333V20.2409C10.4167 19.7952 10.1176 19.408 9.70598 19.2372C9.29424 19.0662 8.81482 19.1314 8.49958 19.4467L8.08054 19.8656C7.67374 20.2725 7.0142 20.2725 6.60741 19.8656L5.13426 18.3925C4.72747 17.9857 4.72747 17.3261 5.13426 16.9194L5.55336 16.5003C5.86858 16.1851 5.93373 15.7057 5.76279 15.294C5.59193 14.8824 5.20478 14.5833 4.75916 14.5833H4.16667C3.59137 14.5833 3.125 14.117 3.125 13.5417V11.4583C3.125 10.883 3.59137 10.4167 4.16667 10.4167H4.75914C5.20477 10.4167 5.59193 10.1176 5.7628 9.706C5.93375 9.29427 5.8686 8.81489 5.55336 8.49965L5.13428 8.08056C4.72748 7.67376 4.72748 7.01422 5.13428 6.60743L6.60742 5.13428C7.01422 4.72749 7.67376 4.72749 8.08056 5.13428L8.49965 5.55336C8.81488 5.8686 9.29427 5.93375 9.706 5.7628C10.1176 5.59193 10.4167 5.20477 10.4167 4.75912V4.16667C10.4167 3.59137 10.883 3.125 11.4583 3.125Z" stroke="#333333" stroke-width="2"/>
<path d="M14.5833 12.5001C14.5833 13.6507 13.6506 14.5834 12.5 14.5834C11.3493 14.5834 10.4166 13.6507 10.4166 12.5001C10.4166 11.3495 11.3493 10.4167 12.5 10.4167C13.6506 10.4167 14.5833 11.3495 14.5833 12.5001Z" stroke="#333333" stroke-width="2"/>
</svg>
