<svg width="48" height="48" viewBox="0 0 48 48" fill="none" xmlns="http://www.w3.org/2000/svg">
<rect width="48" height="48" rx="9" fill="#DCEECB"/>
<path d="M11.7195 20.6401C11.2811 20.6343 10.8475 20.7395 10.4527 20.9475C10.0579 21.1554 9.71281 21.4604 9.44453 21.8384V18.1482C9.44453 18.0186 9.39729 17.8942 9.31319 17.8026C9.22909 17.7109 9.11503 17.6594 8.99609 17.6594H7.44844C7.3295 17.6594 7.21544 17.7109 7.13134 17.8026C7.04725 17.8942 7 18.0186 7 18.1482V28.7359C7 28.8655 7.04725 28.9899 7.13134 29.0815C7.21544 29.1732 7.3295 29.2247 7.44844 29.2247H9.00156C9.1205 29.2247 9.23456 29.1732 9.31866 29.0815C9.40275 28.9899 9.45 28.8655 9.45 28.7359V28.253C10.0844 29.0518 10.8664 29.4334 11.725 29.4334C13.6172 29.4334 15.1102 27.8715 15.1102 25.0338C15.1102 22.2915 13.6281 20.6401 11.7195 20.6401ZM10.9102 27.0726C10.3852 27.0726 9.75078 26.7805 9.45 26.3274V23.764C9.75078 23.3109 10.3906 23.0009 10.9102 23.0009C11.8781 23.0009 12.6109 23.7819 12.6109 25.0278C12.6109 26.2917 11.8836 27.0726 10.9102 27.0726ZM19.4633 23.5553C19.2751 23.5553 19.0911 23.6162 18.9346 23.7301C18.7781 23.8441 18.6562 24.0061 18.5842 24.1957C18.5121 24.3852 18.4933 24.5938 18.53 24.795C18.5667 24.9962 18.6573 25.181 18.7904 25.3261C18.9235 25.4712 19.0931 25.57 19.2776 25.61C19.4622 25.65 19.6536 25.6295 19.8274 25.551C20.0013 25.4725 20.1499 25.3395 20.2545 25.1689C20.359 24.9983 20.4148 24.7978 20.4148 24.5926C20.4148 24.3175 20.3146 24.0537 20.1361 23.8591C19.9577 23.6646 19.7157 23.5553 19.4633 23.5553ZM21.9844 18.19V15.5252C22.1397 15.4548 22.2679 15.328 22.3471 15.1662C22.4263 15.0044 22.4517 14.8177 22.4188 14.6379C22.3859 14.458 22.2968 14.2962 22.1668 14.1799C22.0367 14.0636 21.8737 14 21.7055 14C21.5372 14 21.3742 14.0636 21.2442 14.1799C21.1141 14.2962 21.025 14.458 20.9922 14.6379C20.9593 14.8177 20.9846 15.0044 21.0638 15.1662C21.143 15.328 21.2712 15.4548 21.4266 15.5252V18.19C19.8933 18.2693 18.4493 18.9993 17.4032 20.2239C16.357 21.4485 15.7918 23.0706 15.8282 24.7434C15.8646 26.4163 16.4998 28.0073 17.5981 29.1764C18.6963 30.3455 20.1704 31 21.7055 31C23.2405 31 24.7146 30.3455 25.8129 29.1764C26.9111 28.0073 27.5463 26.4163 27.5827 24.7434C27.6191 23.0706 27.0539 21.4485 26.0078 20.2239C24.9617 18.9993 23.5177 18.2693 21.9844 18.19ZM26.6875 24.5926C26.6875 26.4109 24.4562 27.8893 21.7055 27.8893C18.9547 27.8893 16.7234 26.4109 16.7234 24.5926C16.7234 22.7744 18.9547 21.2959 21.7055 21.2959C24.4562 21.2959 26.682 22.7684 26.682 24.5926H26.6875ZM23.9422 25.6299C24.1304 25.6299 24.3144 25.5691 24.4708 25.4551C24.6273 25.3411 24.7493 25.1791 24.8213 24.9896C24.8933 24.8 24.9122 24.5915 24.8755 24.3903C24.8387 24.189 24.7481 24.0042 24.615 23.8591C24.482 23.7141 24.3124 23.6153 24.1278 23.5752C23.9432 23.5352 23.7519 23.5558 23.578 23.6343C23.4042 23.7128 23.2556 23.8457 23.151 24.0163C23.0464 24.1869 22.9906 24.3875 22.9906 24.5926C22.9906 24.8677 23.0909 25.1316 23.2693 25.3261C23.4478 25.5206 23.6898 25.6299 23.9422 25.6299ZM38.757 23.7819C37.9477 23.6269 37.532 23.5553 37.532 23.1917C37.532 22.8638 37.9313 22.6015 38.5 22.6015C39.1681 22.6068 39.8215 22.8153 40.3867 23.2036C40.4869 23.2729 40.6081 23.2961 40.7239 23.2682C40.8398 23.2403 40.9407 23.1634 41.0047 23.0546C41.0102 23.0486 41.0102 23.0426 41.0156 23.0367L41.4859 22.1484C41.5441 22.0374 41.5601 21.906 41.5305 21.7823C41.5008 21.6586 41.4279 21.5525 41.3273 21.4867C40.4679 20.9279 39.4842 20.6371 38.4836 20.6461C36.3508 20.6461 35.1914 21.9278 35.1914 23.4003C35.1914 25.5644 37.0344 25.8982 38.3414 26.1188C39.0742 26.2559 39.6594 26.3811 39.6594 26.7745C39.6594 27.1561 39.3586 27.4184 38.6258 27.4184C37.882 27.4184 36.9305 27.0488 36.2961 26.6076C36.196 26.5383 36.0747 26.5151 35.9589 26.543C35.8431 26.5709 35.7421 26.6478 35.6781 26.7567C35.6781 26.7626 35.6727 26.7626 35.6727 26.7686L35.1148 27.7761C35.0547 27.8842 35.0353 28.0136 35.0608 28.137C35.0863 28.2604 35.1547 28.3682 35.2516 28.4378C36.0828 29.0518 37.3133 29.4334 38.5 29.4334C40.7094 29.4334 42 28.253 42 26.6613C42 24.384 40.0586 24.0382 38.757 23.7819ZM33.5125 27.4065C33.4828 27.287 33.4127 27.1843 33.3163 27.1191C33.2199 27.0538 33.1043 27.0308 32.993 27.0547C32.9172 27.0703 32.8403 27.0782 32.7633 27.0786C32.3367 27.0786 32.0797 26.7149 32.0797 26.232V23.1738H33.1898C33.3073 23.1738 33.42 23.1229 33.5031 23.0323C33.5861 22.9418 33.6328 22.819 33.6328 22.6909V21.3376C33.6328 21.2096 33.5861 21.0867 33.5031 20.9962C33.42 20.9056 33.3073 20.8548 33.1898 20.8548H32.0797V19.0484C32.0797 18.985 32.0682 18.9222 32.046 18.8636C32.0237 18.805 31.9911 18.7518 31.9499 18.707C31.9088 18.6621 31.86 18.6266 31.8062 18.6023C31.7525 18.578 31.6949 18.5655 31.6367 18.5655H30.0945C29.977 18.5655 29.8644 18.6164 29.7813 18.707C29.6982 18.7975 29.6516 18.9203 29.6516 19.0484V20.8488H28.8203C28.7028 20.8488 28.5902 20.8997 28.5071 20.9902C28.424 21.0808 28.3773 21.2036 28.3773 21.3317V22.6849C28.3766 22.7489 28.3875 22.8123 28.4095 22.8716C28.4314 22.9308 28.4639 22.9848 28.5051 23.0302C28.5463 23.0757 28.5954 23.1118 28.6495 23.1365C28.7036 23.1611 28.7617 23.1738 28.8203 23.1738H29.6461V26.9713C29.6461 28.5809 30.4883 29.4334 32.0469 29.4334C32.7141 29.4334 33.2172 29.3022 33.5563 29.1115C33.6454 29.06 33.716 28.9773 33.7567 28.8767C33.7973 28.7761 33.8057 28.6635 33.7805 28.557L33.5125 27.4065Z" fill="#333333"/>
</svg>
