<svg width="22" height="22" viewBox="0 0 22 22" fill="none" xmlns="http://www.w3.org/2000/svg">
<path d="M6.1875 2.75C3.55882 2.75 2.75 3.55882 2.75 6.1875C2.75 8.81618 3.55882 9.625 6.1875 9.625C8.81618 9.625 9.625 8.81618 9.625 6.1875C9.625 3.55882 8.81618 2.75 6.1875 2.75Z" stroke="#333333" stroke-width="2" stroke-linecap="round" stroke-linejoin="round"/>
<path d="M6.1875 12.375C3.55882 12.375 2.75 13.1839 2.75 15.8125C2.75 18.4411 3.55882 19.25 6.1875 19.25C8.81618 19.25 9.625 18.4411 9.625 15.8125C9.625 13.1839 8.81618 12.375 6.1875 12.375Z" stroke="#333333" stroke-width="2" stroke-linecap="round" stroke-linejoin="round"/>
<path d="M15.8125 12.375C13.1839 12.375 12.375 13.1839 12.375 15.8125C12.375 18.4411 13.1839 19.25 15.8125 19.25C18.4411 19.25 19.25 18.4411 19.25 15.8125C19.25 13.1839 18.4411 12.375 15.8125 12.375Z" stroke="#333333" stroke-width="2" stroke-linecap="round" stroke-linejoin="round"/>
<path d="M15.8125 2.75C13.1839 2.75 12.375 3.55882 12.375 6.1875C12.375 8.81618 13.1839 9.625 15.8125 9.625C18.4411 9.625 19.25 8.81618 19.25 6.1875C19.25 3.55882 18.4411 2.75 15.8125 2.75Z" stroke="#333333" stroke-width="2" stroke-linecap="round" stroke-linejoin="round"/>
</svg>
