<svg width="20" height="20" viewBox="0 0 20 20" fill="none" xmlns="http://www.w3.org/2000/svg">
<path d="M19.6328 10.8828C20.1211 10.3945 20.1211 9.60154 19.6328 9.11325L14.6328 4.11325C14.1445 3.62497 13.3516 3.62497 12.8633 4.11325C12.375 4.60154 12.375 5.3945 12.8633 5.88279L15.7305 8.74997H7.5C6.80859 8.74997 6.25 9.30857 6.25 9.99997C6.25 10.6914 6.80859 11.25 7.5 11.25H15.7305L12.8633 14.1172C12.375 14.6054 12.375 15.3984 12.8633 15.8867C13.3516 16.375 14.1445 16.375 14.6328 15.8867L19.6328 10.8867V10.8828ZM6.25 3.18179C6.94141 3.18179 7.5 2.96411 7.5 2.2727C7.5 1.58129 6.94141 1.24997 6.25 1.24997H3.75C1.67969 1.24997 0 1.11155 0 3.18186V16.8182C0 18.8885 1.67969 18.75 3.75 18.75H6.25C6.94141 18.75 7.5 18.4187 7.5 17.7272C7.5 17.0358 6.6005 16.8182 5.90909 16.8182H3.75C3.05859 16.8182 2.5 16.5781 2.5 15.8867V3.63634C2.5 2.94493 3.05859 3.18179 3.75 3.18179H6.25Z" fill="#333333"/>
</svg>
