<svg width="145" height="80" viewBox="0 0 145 80" fill="none" xmlns="http://www.w3.org/2000/svg">
<path d="M19.4553 46.8C15.8553 46.8 12.7219 46.0667 10.0553 44.6C7.42194 43.1333 5.37194 41.1 3.90527 38.5C2.43861 35.9 1.70527 32.9 1.70527 29.5C1.70527 25.8667 2.47194 22.65 4.00527 19.85C5.53861 17.05 7.68861 14.85 10.4553 13.25C13.2219 11.65 16.4386 10.85 20.1053 10.85C24.1053 10.85 27.2886 11.65 29.6553 13.25L28.1553 21.1C26.0553 20.2 23.8719 19.75 21.6053 19.75C18.8719 19.75 16.7219 20.5667 15.1553 22.2C13.5886 23.8333 12.8053 26.1 12.8053 29C12.8053 31.9333 13.5053 34.2167 14.9053 35.85C16.3386 37.4833 18.1553 38.3 20.3553 38.3C21.1553 38.3 21.8219 38.2333 22.3553 38.1V29.55L31.0053 28.55V44.2C29.1053 45.0667 27.1719 45.7167 25.2053 46.15C23.2386 46.5833 21.3219 46.8 19.4553 46.8ZM35.7178 46V20.95H46.1178V27.2C46.7844 24.9333 47.8178 23.2667 49.2178 22.2C50.6511 21.1333 52.3511 20.6 54.3178 20.6L55.5678 29.45C54.7678 29.35 53.9844 29.3 53.2178 29.3C48.5844 29.3 46.2678 31.2 46.2678 35V46H35.7178ZM72.8986 39.4C73.8653 39.4 74.882 39.3 75.9486 39.1C77.0486 38.9 78.1653 38.5333 79.2986 38L80.4986 44.45C79.2653 45.0833 77.9153 45.5667 76.4486 45.9C75.0153 46.2333 73.3653 46.4 71.4986 46.4C68.132 46.4 65.2986 45.85 62.9986 44.75C60.732 43.65 59.0153 42.1333 57.8486 40.2C56.682 38.2667 56.0986 36.0333 56.0986 33.5C56.0986 30.9 56.7153 28.6333 57.9486 26.7C59.2153 24.7667 60.8986 23.2667 62.9986 22.2C65.0986 21.1333 67.4153 20.6 69.9486 20.6C73.7153 20.6 76.5986 21.7833 78.5986 24.15C80.5986 26.4833 81.5986 29.8167 81.5986 34.15L66.6986 36.05C67.7986 38.2833 69.8653 39.4 72.8986 39.4ZM65.8986 31.45L73.7486 29.8C73.6153 28.7333 73.2486 27.95 72.6486 27.45C72.0486 26.9167 71.2986 26.65 70.3986 26.65C69.0653 26.65 67.9986 27.1167 67.1986 28.05C66.432 28.95 65.9986 30.0833 65.8986 31.45ZM100.633 39.4C101.6 39.4 102.616 39.3 103.683 39.1C104.783 38.9 105.9 38.5333 107.033 38L108.233 44.45C107 45.0833 105.65 45.5667 104.183 45.9C102.75 46.2333 101.1 46.4 99.233 46.4C95.8663 46.4 93.033 45.85 90.733 44.75C88.4663 43.65 86.7497 42.1333 85.583 40.2C84.4163 38.2667 83.833 36.0333 83.833 33.5C83.833 30.9 84.4497 28.6333 85.683 26.7C86.9497 24.7667 88.633 23.2667 90.733 22.2C92.833 21.1333 95.1497 20.6 97.683 20.6C101.45 20.6 104.333 21.7833 106.333 24.15C108.333 26.4833 109.333 29.8167 109.333 34.15L94.433 36.05C95.533 38.2833 97.5997 39.4 100.633 39.4ZM93.633 31.45L101.483 29.8C101.35 28.7333 100.983 27.95 100.383 27.45C99.783 26.9167 99.033 26.65 98.133 26.65C96.7997 26.65 95.733 27.1167 94.933 28.05C94.1663 28.95 93.733 30.0833 93.633 31.45ZM112.817 46V20.95H123.217V26.4C123.984 24.5333 125.117 23.1 126.617 22.1C128.151 21.1 129.967 20.6 132.067 20.6C135.334 20.6 137.867 21.7333 139.667 24C141.467 26.2333 142.367 29.4 142.367 33.5V46H131.817V32.95C131.817 29.9833 130.617 28.5 128.217 28.5C126.784 28.5 125.617 29.0333 124.717 30.1C123.817 31.1333 123.367 32.5333 123.367 34.3V46H112.817Z" fill="#57AE09"/>
<path d="M45.8933 60.68C46.9933 59.74 48.1833 59.27 49.4633 59.27C50.7433 59.27 51.6433 59.58 52.1633 60.2C52.7033 60.8 52.9733 61.71 52.9733 62.93V74H47.8733V64.64C47.8733 64.14 47.6533 63.89 47.2133 63.89C46.6533 63.89 46.1833 64.03 45.8033 64.31V74H40.7633V54.77H45.7733V60.68H45.8933ZM54.5272 66.77C54.5272 64.13 55.0272 62.22 56.0272 61.04C57.0472 59.86 58.6272 59.27 60.7672 59.27C62.9272 59.27 64.4972 59.85 65.4772 61.01C66.4572 62.17 66.9472 64.08 66.9472 66.74C66.9472 69.38 66.4672 71.3 65.5072 72.5C64.5472 73.7 62.9772 74.3 60.7972 74.3C58.6172 74.3 57.0272 73.7 56.0272 72.5C55.0272 71.3 54.5272 69.39 54.5272 66.77ZM61.7272 63.92C61.6072 63.52 61.2872 63.32 60.7672 63.32C60.2472 63.32 59.9172 63.52 59.7772 63.92C59.6372 64.32 59.5672 65.16 59.5672 66.44V67.16C59.5672 68.58 59.6372 69.5 59.7772 69.92C59.9172 70.34 60.2372 70.55 60.7372 70.55C61.2572 70.55 61.5872 70.34 61.7272 69.92C61.8672 69.5 61.9372 68.64 61.9372 67.34V66.47C61.9372 65.17 61.8672 64.32 61.7272 63.92ZM72.0774 74.3C69.6974 74.3 68.5074 72.98 68.5074 70.34V59.63H73.6074V69.11C73.6074 69.61 73.8274 69.86 74.2674 69.86C74.8274 69.86 75.2974 69.72 75.6774 69.44V59.63H80.7174V73.94H75.9474V72.89H75.8274C74.7274 73.83 73.4774 74.3 72.0774 74.3ZM81.7313 63.89C81.7313 62.43 82.1713 61.3 83.0513 60.5C83.9513 59.68 85.1813 59.27 86.7413 59.27C88.3013 59.27 89.8813 59.47 91.4813 59.87L90.9713 64.04C88.9313 63.58 87.5613 63.35 86.8613 63.35C86.4413 63.35 86.2313 63.52 86.2313 63.86C86.2313 64.08 86.4613 64.28 86.9213 64.46C88.5213 65.04 89.7213 65.7 90.5213 66.44C91.3413 67.18 91.7513 68.29 91.7513 69.77C91.7513 71.25 91.3713 72.38 90.6113 73.16C89.8513 73.92 88.6813 74.3 87.1013 74.3C85.5413 74.3 83.9813 74.1 82.4213 73.7L82.7513 69.65C84.7513 70.19 86.0413 70.46 86.6213 70.46C87.2213 70.46 87.5213 70.32 87.5213 70.04C87.5213 69.76 87.3013 69.54 86.8613 69.38C85.0813 68.7 83.7813 67.98 82.9613 67.22C82.1413 66.44 81.7313 65.33 81.7313 63.89ZM98.7652 63.56C98.2452 63.56 97.9052 63.74 97.7452 64.1C97.5852 64.44 97.5052 64.97 97.5052 65.69H100.115V64.97C100.115 64.03 99.6652 63.56 98.7652 63.56ZM98.8852 59.27C100.945 59.27 102.415 59.77 103.295 60.77C104.195 61.75 104.645 63.16 104.645 65C104.645 65.24 104.575 66.32 104.435 68.24H97.5952C97.5952 69.74 98.2852 70.49 99.6652 70.49C100.325 70.49 101.615 70.26 103.535 69.8L103.955 73.52C102.275 74.04 100.595 74.3 98.9152 74.3C96.8552 74.3 95.2752 73.63 94.1752 72.29C93.0752 70.93 92.5252 69.09 92.5252 66.77C92.5252 61.77 94.6452 59.27 98.8852 59.27Z" fill="black"/>
</svg>
