<svg width="22" height="22" viewBox="0 0 22 22" fill="none" xmlns="http://www.w3.org/2000/svg">
<path d="M17.1867 8.90036V8.25447C17.1867 4.70813 14.4168 1.83325 11 1.83325C7.58318 1.83325 4.8133 4.70813 4.8133 8.25447V8.90036C4.8133 9.67552 4.59224 10.4332 4.17798 11.0782L3.16283 12.6586C2.23559 14.1022 2.94346 16.0644 4.55616 16.5209C8.77501 17.7151 13.225 17.7151 17.4438 16.5209C19.0566 16.0644 19.7644 14.1022 18.8371 12.6586L17.822 11.0782C17.4078 10.4332 17.1867 9.67552 17.1867 8.90036Z" stroke="#333333" stroke-width="2"/>
<path opacity="0.5" d="M6.875 17.4167C7.47544 19.0189 9.09559 20.1667 11 20.1667C12.9044 20.1667 14.5246 19.0189 15.125 17.4167" stroke="#333333" stroke-width="2" stroke-linecap="round"/>
</svg>
