<svg width="123" height="34" viewBox="0 0 123 34" fill="none" xmlns="http://www.w3.org/2000/svg">
<path d="M9.275 27.56C7.805 27.56 6.31167 27.3733 4.795 27C3.27833 26.65 1.995 26.1717 0.945 25.565L2.205 19.86C3.55833 20.5833 4.81833 21.0617 5.985 21.295C7.175 21.505 8.27167 21.61 9.275 21.61C10.2083 21.61 10.9083 21.4583 11.375 21.155C11.865 20.8517 12.11 20.4433 12.11 19.93C12.11 19.4633 11.8417 19.1017 11.305 18.845C10.7683 18.565 10.0683 18.3083 9.205 18.075C8.365 17.8417 7.46667 17.5733 6.51 17.27C5.55333 16.9433 4.64333 16.5233 3.78 16.01C2.94 15.4733 2.25167 14.7733 1.715 13.91C1.17833 13.0233 0.91 11.915 0.91 10.585C0.91 8.905 1.31833 7.45833 2.135 6.245C2.95167 5.00833 4.11833 4.06333 5.635 3.41C7.15167 2.73333 8.93667 2.395 10.99 2.395C12.3667 2.395 13.7083 2.58167 15.015 2.955C16.345 3.305 17.4067 3.78333 18.2 4.39L17.01 9.535C15.82 9.045 14.7467 8.695 13.79 8.485C12.8567 8.25167 11.97 8.135 11.13 8.135C10.15 8.135 9.40333 8.275 8.89 8.555C8.37667 8.835 8.12 9.20833 8.12 9.675C8.12 10.1183 8.38833 10.48 8.925 10.76C9.46167 11.04 10.15 11.3083 10.99 11.565C11.83 11.8217 12.7283 12.1133 13.685 12.44C14.6417 12.7667 15.54 13.1983 16.38 13.735C17.22 14.2717 17.9083 14.9717 18.445 15.835C18.9817 16.6983 19.25 17.7833 19.25 19.09C19.25 21.7967 18.3633 23.885 16.59 25.355C14.84 26.825 12.4017 27.56 9.275 27.56ZM27.9467 27.28C26.3833 27.28 25.1117 27 24.1317 26.44C23.175 25.88 22.475 25.1217 22.0317 24.165C21.5883 23.2083 21.3667 22.135 21.3667 20.945V9.465H28.7517V19.93C28.7517 20.4667 28.9033 20.8867 29.2067 21.19C29.5333 21.47 29.9183 21.61 30.3617 21.61C30.8283 21.61 31.3067 21.47 31.7967 21.19L32.1817 26.055C31.6683 26.4517 31.0033 26.755 30.1867 26.965C29.37 27.175 28.6233 27.28 27.9467 27.28ZM25.0767 7.54C24.0033 7.54 23.0817 7.20166 22.3117 6.525C21.5417 5.825 21.1567 4.97333 21.1567 3.97C21.1567 3.27 21.3433 2.66333 21.7167 2.15C22.09 1.61333 22.58 1.19333 23.1867 0.889998C23.7933 0.586665 24.4233 0.434998 25.0767 0.434998C25.8 0.434998 26.4533 0.598331 27.0367 0.924998C27.6433 1.25167 28.1217 1.68333 28.4717 2.22C28.845 2.75667 29.0317 3.34 29.0317 3.97C29.0317 4.67 28.8333 5.28833 28.4367 5.825C28.0633 6.36167 27.5733 6.78167 26.9667 7.085C26.3833 7.38833 25.7533 7.54 25.0767 7.54ZM44.2405 33.825C43.3539 33.825 42.5255 33.7667 41.7555 33.65C40.9855 33.5333 40.3789 33.3933 39.9355 33.23L40.4955 28.155C40.9155 28.2483 41.3705 28.3183 41.8605 28.365C42.3505 28.435 42.8289 28.47 43.2955 28.47C44.8589 28.47 45.9789 28.1433 46.6555 27.49C47.3555 26.8367 47.7055 25.8333 47.7055 24.48V22.835C47.0522 24.1183 46.2472 25.0633 45.2905 25.67C44.3339 26.2767 43.1322 26.58 41.6855 26.58C40.0289 26.58 38.5355 26.2067 37.2055 25.46C35.8755 24.69 34.8255 23.6517 34.0555 22.345C33.3089 21.015 32.9355 19.4983 32.9355 17.795C32.9355 16.0917 33.3089 14.5983 34.0555 13.315C34.8255 12.0317 35.8755 11.0283 37.2055 10.305C38.5355 9.58167 40.0289 9.22 41.6855 9.22C42.8522 9.22 43.9722 9.535 45.0455 10.165C46.1189 10.7717 46.9355 11.7633 47.4955 13.14V9.465H54.8455V22.905C54.8455 26.6383 53.9239 29.3917 52.0805 31.165C50.2372 32.9383 47.6239 33.825 44.2405 33.825ZM43.9605 21.05C44.9639 21.05 45.8039 20.735 46.4805 20.105C47.1572 19.475 47.4955 18.7167 47.4955 17.83C47.4955 16.9433 47.1572 16.2083 46.4805 15.625C45.8039 15.0417 44.9639 14.75 43.9605 14.75C42.8872 14.75 42.0005 15.0533 41.3005 15.66C40.6239 16.2667 40.2855 17.0133 40.2855 17.9C40.2855 18.7633 40.6239 19.51 41.3005 20.14C42.0005 20.7467 42.8872 21.05 43.9605 21.05ZM58.3516 27V9.465H65.6316V13.28C66.1682 11.9733 66.9616 10.97 68.0116 10.27C69.0849 9.57 70.3566 9.22 71.8266 9.22C74.1132 9.22 75.8866 10.0133 77.1466 11.6C78.4066 13.1633 79.0366 15.38 79.0366 18.25V27H71.6516V17.865C71.6516 15.7883 70.8116 14.75 69.1316 14.75C68.1282 14.75 67.3116 15.1233 66.6816 15.87C66.0516 16.5933 65.7366 17.5733 65.7366 18.81V27H58.3516ZM95.349 27.28C93.7857 27.28 92.514 27 91.534 26.44C90.5774 25.88 89.8774 25.1217 89.434 24.165C88.9907 23.2083 88.769 22.135 88.769 20.945V9.465H96.154V19.93C96.154 20.4667 96.3057 20.8867 96.609 21.19C96.9357 21.47 97.3207 21.61 97.764 21.61C98.2307 21.61 98.709 21.47 99.199 21.19L99.584 26.055C99.0707 26.4517 98.4057 26.755 97.589 26.965C96.7724 27.175 96.0257 27.28 95.349 27.28ZM92.479 7.54C91.4057 7.54 90.484 7.20166 89.714 6.525C88.944 5.825 88.559 4.97333 88.559 3.97C88.559 3.27 88.7457 2.66333 89.119 2.15C89.4924 1.61333 89.9824 1.19333 90.589 0.889998C91.1957 0.586665 91.8257 0.434998 92.479 0.434998C93.2024 0.434998 93.8557 0.598331 94.439 0.924998C95.0457 1.25167 95.524 1.68333 95.874 2.22C96.2474 2.75667 96.434 3.34 96.434 3.97C96.434 4.67 96.2357 5.28833 95.839 5.825C95.4657 6.36167 94.9757 6.78167 94.369 7.085C93.7857 7.38833 93.1557 7.54 92.479 7.54ZM101.384 27V9.465H108.664V13.28C109.2 11.9733 109.994 10.97 111.044 10.27C112.117 9.57 113.389 9.22 114.859 9.22C117.145 9.22 118.919 10.0133 120.179 11.6C121.439 13.1633 122.069 15.38 122.069 18.25V27H114.684V17.865C114.684 15.7883 113.844 14.75 112.164 14.75C111.16 14.75 110.344 15.1233 109.714 15.87C109.084 16.5933 108.769 17.5733 108.769 18.81V27H101.384Z" fill="#DCEECB"/>
</svg>
